<svg width="40" height="40" viewBox="0 0 40 40" fill="none" xmlns="http://www.w3.org/2000/svg">
<path d="M7.34754 0H32.6525C33.6174 0 34.5728 0.197599 35.4642 0.581516C36.3557 0.965433 37.1657 1.52815 37.848 2.23753C38.5302 2.94692 39.0715 3.78908 39.4407 4.71594C39.8099 5.6428 40 6.6362 40 7.63942V32.3606C40 33.3638 39.8099 34.3572 39.4407 35.2841C39.0715 36.2109 38.5302 37.0531 37.848 37.7625C37.1657 38.4719 36.3557 39.0346 35.4642 39.4185C34.5728 39.8024 33.6174 40 32.6525 40H7.34754C5.39885 40 3.52997 39.1951 2.15204 37.7625C0.774113 36.3298 0 34.3867 0 32.3606V7.63942C0 5.61332 0.774113 3.6702 2.15204 2.23753C3.52997 0.804865 5.39885 0 7.34754 0Z" fill="#3B5998"/>
<path d="M15.1354 20.7028H17.3837V30.3438C17.3837 30.437 17.4193 30.5264 17.4827 30.5923C17.5461 30.6582 17.632 30.6952 17.7217 30.6952H21.5424C21.5868 30.6952 21.6307 30.6861 21.6717 30.6684C21.7128 30.6508 21.75 30.6249 21.7814 30.5923C21.8128 30.5596 21.8377 30.5209 21.8547 30.4782C21.8716 30.4356 21.8804 30.3899 21.8804 30.3438V20.7487H24.4667C24.5484 20.7463 24.6267 20.7145 24.6884 20.6588C24.75 20.6031 24.7911 20.5268 24.8047 20.4431L25.1868 16.8831C25.1928 16.8345 25.1895 16.7851 25.1768 16.7379C25.1642 16.6906 25.1426 16.6465 25.1133 16.6081C25.0453 16.542 24.9565 16.504 24.8635 16.5011H21.9245V14.2704C21.9245 13.5982 22.2625 13.262 22.9531 13.262H24.9076C24.9781 13.2541 25.0445 13.2232 25.0972 13.1739C25.15 13.1245 25.1865 13.0591 25.2015 12.987V9.65622C25.2015 9.56302 25.1659 9.47364 25.1025 9.40774C25.0391 9.34183 24.9531 9.30481 24.8635 9.30481H22.0567C20.8147 9.30542 19.6146 9.77198 18.6769 10.6188C18.2361 11.0201 17.8979 11.5289 17.6927 12.0996C17.4876 12.6702 17.4218 13.2849 17.5013 13.8885V16.5011H15.1354C15.0482 16.5011 14.9644 16.536 14.9014 16.5986C14.8384 16.6612 14.8012 16.7467 14.7974 16.8373V20.3514C14.7974 20.4446 14.833 20.534 14.8964 20.5999C14.9597 20.6658 15.0457 20.7028 15.1354 20.7028Z" fill="white"/>
</svg>
