<svg width="40" height="40" viewBox="0 0 40 40" fill="none" xmlns="http://www.w3.org/2000/svg">
<path d="M18.125 21.025C18.4358 21.025 18.7339 21.1485 18.9537 21.3682C19.1734 21.588 19.2969 21.8861 19.2969 22.1969C19.2969 22.5077 19.1734 22.8058 18.9537 23.0255C18.7339 23.2453 18.4358 23.3688 18.125 23.3688C17.8142 23.3688 17.5161 23.2453 17.2964 23.0255C17.0766 22.8058 16.9531 22.5077 16.9531 22.1969C16.9531 21.8861 17.0766 21.588 17.2964 21.3682C17.5161 21.1485 17.8142 21.025 18.125 21.025ZM18.125 11.8806C20.0581 11.8806 21.5994 13.4669 21.5994 15.5369C21.5994 16.6356 21.1981 17.2394 20.2363 18.0081L19.7169 18.4113C19.2556 18.775 19.1 18.9738 19.0681 19.2513L19.0475 19.5438C19.0058 19.7743 18.8792 19.9808 18.6928 20.1227C18.5064 20.2646 18.2736 20.3316 18.0403 20.3104C17.807 20.2892 17.59 20.1815 17.4322 20.0084C17.2744 19.8352 17.1871 19.6093 17.1875 19.375C17.1875 18.3063 17.5813 17.7175 18.53 16.96L19.0513 16.5569C19.5913 16.1256 19.7263 15.9156 19.7263 15.5369C19.7263 14.4906 19.01 13.7556 18.125 13.7556C17.1988 13.7556 16.5144 14.4419 16.5256 15.5275C16.5281 15.7761 16.4317 16.0156 16.2577 16.1932C16.1715 16.2811 16.0688 16.3512 15.9556 16.3994C15.8423 16.4477 15.7206 16.4732 15.5975 16.4744C15.3489 16.4769 15.1094 16.3805 14.9319 16.2064C14.7543 16.0324 14.6531 15.7949 14.6506 15.5463C14.63 13.4125 16.16 11.8806 18.125 11.8806ZM8.75001 17.5C8.75077 15.4713 9.40957 13.4976 10.6275 11.8752C11.8454 10.2528 13.5568 9.06924 15.5046 8.5022C17.4524 7.93516 19.5316 8.01526 21.4301 8.73045C23.3285 9.44564 24.9437 10.7573 26.0333 12.4686C27.1228 14.1799 27.6278 16.1985 27.4725 18.2212C27.3172 20.2439 26.51 22.1617 25.172 23.6866C23.834 25.2115 22.0375 26.2613 20.0521 26.6783C18.0668 27.0954 15.9997 26.8571 14.1613 25.9994L9.87126 26.8563C9.72003 26.8864 9.56371 26.8787 9.41615 26.834C9.26858 26.7892 9.13434 26.7087 9.0253 26.5997C8.91627 26.4907 8.83581 26.3564 8.79106 26.2089C8.74631 26.0613 8.73865 25.905 8.76876 25.7538L9.62563 21.4619C9.04706 20.2213 8.74814 18.8688 8.75001 17.5ZM18.125 10C16.8412 9.99968 15.5789 10.3289 14.4588 10.9561C13.3386 11.5833 12.3983 12.4876 11.7277 13.5823C11.0571 14.677 10.6787 15.9255 10.6288 17.2083C10.5789 18.4911 10.859 19.7652 11.4425 20.9088C11.5388 21.0971 11.5685 21.3126 11.5269 21.52L10.8819 24.7431L14.105 24.0981C14.3124 24.0565 14.5279 24.0862 14.7163 24.1825C15.7264 24.6972 16.84 24.9762 17.9735 24.9985C19.1069 25.0209 20.2307 24.786 21.2603 24.3115C22.2899 23.837 23.1986 23.1353 23.9179 22.2591C24.6373 21.3829 25.1487 20.355 25.4136 19.2527C25.6785 18.1504 25.6901 17.0024 25.4475 15.895C25.2049 14.7876 24.7144 13.7496 24.0129 12.859C23.3114 11.9685 22.4171 11.2485 21.3973 10.7533C20.3775 10.2581 19.2587 10.0006 18.125 10ZM15.9875 28.5475C17.6535 29.895 19.7323 30.6285 21.875 30.625C23.2888 30.625 24.6313 30.3119 25.8369 29.7494L30.1288 30.6063C30.28 30.6364 30.4363 30.6287 30.5839 30.584C30.7314 30.5392 30.8657 30.4587 30.9747 30.3497C31.0837 30.2407 31.1642 30.1064 31.209 29.9589C31.2537 29.8113 31.2614 29.655 31.2313 29.5038L30.3744 25.2138C30.9369 24.0081 31.25 22.6638 31.25 21.25C31.2531 19.1079 30.5196 17.0299 29.1725 15.3644C29.4397 16.7525 29.4441 18.1784 29.1856 19.5681C29.5788 21.2862 29.3565 23.0878 28.5575 24.6588C28.4612 24.8471 28.4315 25.0626 28.4731 25.27L29.1181 28.4931L25.8931 27.8481C25.6863 27.8069 25.4716 27.8366 25.2838 27.9325C23.7125 28.7327 21.9099 28.955 20.1913 28.5606C18.8015 28.819 17.3756 28.8146 15.9875 28.5475Z" fill="white"/>
</svg>
