<svg width="40" height="40" viewBox="0 0 40 40" fill="none" xmlns="http://www.w3.org/2000/svg">
<path d="M7.36377 0H32.6362C34.5892 0 36.4622 0.804865 37.8432 2.23753C39.2242 3.6702 40 5.61332 40 7.63942V32.3606C40 34.3867 39.2242 36.3298 37.8432 37.7625C36.4622 39.1951 34.5892 40 32.6362 40H7.36377C5.41078 40 3.53777 39.1951 2.1568 37.7625C0.775824 36.3298 0 34.3867 0 32.3606V7.63942C0 5.61332 0.775824 3.6702 2.1568 2.23753C3.53777 0.804865 5.41078 0 7.36377 0Z" fill="#1FAEE9"/>
<path d="M30.7053 13.8891C30.2509 14.0991 29.7804 14.2694 29.2987 14.3984C29.8175 13.8522 30.1991 13.1827 30.4099 12.4485C30.4275 12.402 30.4302 12.351 30.4177 12.3028C30.4051 12.2546 30.3779 12.2119 30.3401 12.1809C30.3023 12.1499 30.2558 12.1324 30.2076 12.1308C30.1594 12.1291 30.112 12.1436 30.0723 12.172C29.3913 12.5865 28.6573 12.9 27.892 13.1033H27.7514C27.6112 13.1082 27.4748 13.056 27.3716 12.9578C26.5589 12.2428 25.5266 11.8507 24.4599 11.8519C23.9832 11.8534 23.5093 11.9269 23.0532 12.0701C22.3382 12.3001 21.6935 12.719 21.1829 13.2856C20.6722 13.8521 20.3133 14.5467 20.1415 15.3006C20.0066 15.8568 19.9685 16.4333 20.029 17.0032C20.029 17.0032 20.029 17.1051 20.029 17.1342C19.9881 17.1498 19.9432 17.1498 19.9024 17.1342C18.3318 16.9979 16.8039 16.5359 15.4095 15.7759C14.0151 15.016 12.7829 13.9734 11.7861 12.7104C11.7658 12.6774 11.7377 12.6502 11.7046 12.6313C11.6714 12.6124 11.6341 12.6026 11.5962 12.6026C11.5584 12.6026 11.5211 12.6124 11.4879 12.6313C11.4547 12.6502 11.4267 12.6774 11.4063 12.7104C11.0106 13.4181 10.802 14.2211 10.8015 15.0387C10.7956 15.6552 10.9097 16.2666 11.1368 16.8366C11.364 17.4065 11.6996 17.9234 12.1237 18.3565C11.7693 18.2705 11.4284 18.1333 11.1109 17.9491C11.0756 17.9294 11.0359 17.9194 10.9958 17.9198C10.9556 17.9201 10.9162 17.931 10.8812 17.9513C10.8461 17.9716 10.8166 18.0007 10.7953 18.0359C10.774 18.0711 10.7616 18.1113 10.7593 18.1528H10.7171C10.7088 19.0489 10.9515 19.9283 11.4157 20.6849C11.88 21.4415 12.546 22.0429 13.3334 22.4165H13.2772C13.0216 22.4162 12.7669 22.3869 12.5176 22.3292C12.4779 22.3258 12.4379 22.3322 12.4011 22.3478C12.3642 22.3634 12.3314 22.3878 12.3054 22.419C12.2793 22.4502 12.2608 22.4873 12.2512 22.5273C12.2416 22.5673 12.2413 22.6091 12.2503 22.6493C12.5055 23.4593 12.9712 24.181 13.5964 24.7354C14.2216 25.2898 14.9823 25.6555 15.795 25.7925C14.4344 26.7483 12.8259 27.2557 11.1813 27.2477H10.7171C10.641 27.2477 10.567 27.2732 10.5061 27.3204C10.4452 27.3676 10.4008 27.434 10.3795 27.5096C10.3626 27.5872 10.3699 27.6684 10.4002 27.7416C10.4305 27.8147 10.4823 27.8761 10.5483 27.917C12.2773 28.9344 14.2138 29.516 16.2007 29.6146C18.1876 29.7132 20.1689 29.3261 21.9842 28.4846C23.4504 27.7766 24.7582 26.7607 25.8243 25.5014C27.8457 23.1386 28.9746 20.1002 29.0033 16.945V16.8722C29.0068 16.7558 29.0337 16.6414 29.0821 16.5362C29.1305 16.431 29.1995 16.3373 29.2846 16.2611C29.9755 15.6898 30.5779 15.0126 31.071 14.2529C31.0998 14.2084 31.1138 14.1554 31.111 14.1019C31.1082 14.0484 31.0886 13.9973 31.0553 13.9563C31.022 13.9153 30.9767 13.8866 30.9263 13.8744C30.8759 13.8623 30.823 13.8675 30.7756 13.8891H30.7053Z" fill="white"/>
</svg>
